<svg width="99" height="99" viewBox="0 0 99 99" fill="none" xmlns="http://www.w3.org/2000/svg">
<circle cx="49.5" cy="49.5" r="45" stroke="url(#paint0_linear_3582_4273)" stroke-width="9"/>
<path fill-rule="evenodd" clip-rule="evenodd" d="M55.4155 42.5C61.9969 42.5 67.3321 47.8353 67.3321 54.4166C67.3321 56.9246 66.5574 59.2515 65.2343 61.1712L71.3162 67.2533L68.2521 70.3175L62.1701 64.2355C60.2503 65.5586 57.9234 66.3334 55.4155 66.3334C48.834 66.3334 43.4988 60.9981 43.4988 54.4166C43.4988 47.8353 48.834 42.5 55.4155 42.5ZM55.4155 46.8334C51.2273 46.8334 47.8321 50.2286 47.8321 54.4166C47.8321 58.6049 51.2274 62 55.4155 62C59.6036 62 62.9988 58.6048 62.9988 54.4166C62.9988 50.2285 59.6035 46.8334 55.4155 46.8334ZM41.3731 53.3333C41.3458 53.6909 41.3321 54.052 41.332 54.4166C41.332 55.5353 41.4624 56.6235 41.7088 57.6668L28.332 57.6666V53.3334L41.3731 53.3333ZM36.9989 29.5V51.1666H30.4988V29.5H36.9989ZM45.6655 38.1666L45.6652 44.2543C43.7426 46.0995 42.3425 48.4849 41.709 51.1665L39.1655 51.1666V38.1666H45.6655ZM54.3321 33.8334V40.3744C52.0189 40.549 49.7853 41.2957 47.8321 42.5473V33.8333L54.3321 33.8334ZM62.9988 36L62.9989 42.5473C61.0457 41.2957 58.8121 40.549 56.4989 40.3744V36H62.9988Z" fill="url(#paint1_linear_3582_4273)"/>
<defs>
<linearGradient id="paint0_linear_3582_4273" x1="15" y1="12.5" x2="82.5" y2="88" gradientUnits="userSpaceOnUse">
<stop stop-color="#FF6E62"/>
<stop offset="1" stop-color="#FFC17A"/>
</linearGradient>
<linearGradient id="paint1_linear_3582_4273" x1="34.8448" y1="34.6537" x2="62.4784" y2="67.2032" gradientUnits="userSpaceOnUse">
<stop stop-color="#FF6E62"/>
<stop offset="1" stop-color="#FFC17A"/>
</linearGradient>
</defs>
</svg>
